<?xml version="1.0" encoding="iso-8859-1"?>
<!-- Generator: Adobe Illustrator 19.0.0, SVG Export Plug-In . SVG Version: 6.00 Build 0)  -->
<svg version="1.1" id="Capa_1" xmlns="http://www.w3.org/2000/svg" xmlns:xlink="http://www.w3.org/1999/xlink" x="0px" y="0px"
	 viewBox="0 0 512 512" style="enable-background:new 0 0 512 512;" xml:space="preserve">
<g>
	<g>
		<path d="M379.823,420.906c-3.114-4.563-9.337-5.738-13.897-2.624l-0.314,0.213c-4.563,3.112-5.737,9.334-2.625,13.896
			c1.937,2.838,5.075,4.365,8.27,4.365c1.941,0,3.902-0.564,5.627-1.74l0.314-0.213
			C381.761,431.691,382.935,425.469,379.823,420.906z"/>
	</g>
</g>
<g>
	<g>
		<path d="M149.049,79.65c-3.083-4.582-9.297-5.798-13.88-2.714l-0.332,0.225c-4.576,3.093-5.778,9.31-2.686,13.885
			c1.933,2.859,5.085,4.401,8.294,4.401c1.927,0,3.875-0.556,5.591-1.716l0.299-0.201C150.917,90.446,152.132,84.232,149.049,79.65z
			"/>
	</g>
</g>
<g>
	<g>
		<path d="M512,256c0-68.38-26.629-132.667-74.98-181.02C388.668,26.629,324.381,0,256.001,0
			C201.746,0,149.84,16.815,105.893,48.627c-4.475,3.238-5.476,9.49-2.237,13.964c3.238,4.475,9.492,5.475,13.964,2.237
			C158.134,35.501,205.984,20,256.001,20C386.131,20,492,125.87,492,256c0,59.692-22.024,115.992-62.208,159.648l-14.165-14.165
			c24.595-26.978,41.973-59.749,50.472-95.37c13.393-56.12,4.128-114.096-26.086-163.248C409.8,93.714,362.254,59.27,306.134,45.878
			c-48.839-11.654-100.541-5.854-145.584,16.334c-4.954,2.44-6.992,8.436-4.552,13.39s8.436,6.994,13.39,4.552
			c40.872-20.134,87.787-25.395,132.104-14.822c105.123,25.086,170.239,131.018,145.154,236.14
			c-7.641,32.022-23.205,61.491-45.193,85.838l-73.892-73.892h73.706c0.008,0,0.016,0,0.02,0c5.523,0,10.001-4.478,10.001-10
			c0-0.228-0.008-0.453-0.023-0.678c-0.148-19.342-6.649-37.694-18.512-52.653c6.887-8.637,10.704-19.384,10.704-30.663
			c0-27.155-22.093-49.247-49.248-49.247c-19.085,0-35.907,10.96-44.051,27.207c-22.479-16.549-49.613-25.52-77.867-25.52
			c-13.958,0-27.412,2.193-40.045,6.239L51.64,37.497c-3.905-3.903-10.235-3.904-14.143,0c-3.905,3.905-3.905,10.237,0,14.143
			l30.562,30.562c-20.594,22.244-36.921,47.703-48.571,75.832C6.557,189.25,0,222.21,0,256c0,68.38,26.629,132.668,74.98,181.019
			C123.331,485.37,187.62,512,256,512c54.254,0,106.16-16.814,150.107-48.627c4.475-3.238,5.476-9.49,2.237-13.964
			c-3.238-4.475-9.491-5.475-13.964-2.237C353.866,476.499,306.016,492,256,492C125.869,492,20,386.13,20,256
			c0-59.692,22.025-115.992,62.209-159.648l14.158,14.158c-24.591,26.975-41.968,59.743-50.468,95.364
			c-13.392,56.121-4.127,114.097,26.086,163.249c30.214,49.151,77.76,83.596,133.88,96.987c16.476,3.932,33.272,5.877,50.034,5.877
			c32.926-0.001,65.702-7.508,95.55-22.211c4.954-2.44,6.992-8.435,4.552-13.39c-2.44-4.953-8.434-6.993-13.39-4.552
			c-40.873,20.134-87.786,25.397-132.104,14.822C105.385,421.572,40.269,315.639,65.353,210.516
			c7.642-32.02,23.205-61.486,45.189-85.832l61.701,61.701c-40.67,20.952-69.073,62.486-71.355,110.744
			c-0.034,0.34-0.053,0.684-0.053,1.031c0,0.052,0.007,0.102,0.008,0.154c-0.064,1.693-0.108,3.393-0.108,5.103
			c0,21.178,17.229,38.406,38.405,38.406h85.07c5.522,0,10-4.478,10-10c0-5.523-4.478-10-10-10h-85.07
			c-6.461,0-12.145-3.355-15.431-8.406h175.566l161.086,161.086c1.953,1.952,4.512,2.929,7.071,2.929
			c2.56,0,5.118-0.977,7.071-2.929c3.905-3.905,3.905-10.237,0-14.143l-30.563-30.563c20.594-22.243,36.921-47.702,48.572-75.831
			C505.443,322.75,512,289.79,512,256z M230.399,293.418L230.399,293.418c-0.043-16.984-3.758-28.777-11.575-36.829
			c-11.757-12.106-28.896-11.971-47.048-11.824c-1.981,0.016-3.99,0.032-6.02,0.032c-5.523,0-10,4.478-10,10c0,5.523,4.477,10,10,10
			c2.084,0,4.146-0.017,6.181-0.032c14.346-0.12,26.74-0.215,32.539,5.757c3.26,3.358,5.186,9.272,5.756,17.639h-88.457
			c5.34-38.867,30.781-71.41,65.461-86.783l92.04,92.04H230.399z M208.55,194.406c7.652-1.665,15.595-2.543,23.74-2.543
			c28.371,0,55.411,10.669,76.139,30.042c2.749,2.569,6.706,3.379,10.244,2.093c3.536-1.285,6.052-4.446,6.51-8.181
			c1.793-14.618,14.271-25.641,29.025-25.641c16.127,0,29.248,13.12,29.248,29.247c0,5.806-1.714,11.371-4.834,16.095
			c-6.514-5.674-13.647-10.63-21.326-14.765c-4.861-2.616-10.928-0.798-13.546,4.065c-2.617,4.863-0.798,10.928,4.065,13.546
			c8.98,4.834,17.073,10.993,24.052,18.306c0.028,0.029,0.06,0.055,0.089,0.084c0.022,0.021,0.039,0.045,0.06,0.066
			c10.029,10.07,16.418,22.804,18.503,36.597h-82.958L208.55,194.406z"/>
	</g>
</g>
<g>
	<g>
		<path d="M353.118,257.755c-5.508,0-10,4.493-10,10c0,5.509,4.492,10.001,10,10.001c5.508,0,10-4.492,10-10.001
			C363.118,262.248,358.626,257.755,353.118,257.755z"/>
	</g>
</g>
<g>
	<g>
		<path d="M253.77,321.824h-0.476c-5.523,0-10,4.477-10,10c0,5.522,4.477,10,10,10h0.476c5.522,0,10-4.478,10-10
			C263.77,326.301,259.292,321.824,253.77,321.824z"/>
	</g>
</g>
<g>
</g>
<g>
</g>
<g>
</g>
<g>
</g>
<g>
</g>
<g>
</g>
<g>
</g>
<g>
</g>
<g>
</g>
<g>
</g>
<g>
</g>
<g>
</g>
<g>
</g>
<g>
</g>
<g>
</g>
</svg>
