<?xml version="1.0" encoding="iso-8859-1"?>
<!-- Generator: Adobe Illustrator 19.1.0, SVG Export Plug-In . SVG Version: 6.00 Build 0)  -->
<svg version="1.1" id="Capa_1" xmlns="http://www.w3.org/2000/svg" xmlns:xlink="http://www.w3.org/1999/xlink" x="0px" y="0px"
	 viewBox="0 0 533.4 533.4" style="enable-background:new 0 0 533.4 533.4;" xml:space="preserve">
<g>
	<g>
		<path d="M313.32,358.793l-52.92,53.406l-28.56-28.595c-3.36-3.364-8.4-3.364-11.76,0c-3.36,3.364-3.36,8.41,0,11.774l34.44,34.482
			c1.68,1.682,3.78,2.523,5.88,2.523s4.2-0.841,5.88-2.523l58.8-58.872c3.36-3.364,3.36-8.41,0-11.774
			C322.14,355.429,316.68,355.429,313.32,358.793z"/>
		<path d="M483.84,39.621H466.2V29.529c0-4.626-3.78-8.41-8.4-8.41s-8.4,3.785-8.4,8.41v10.092h-46.2V29.529
			c0-4.626-3.78-8.41-8.4-8.41s-8.4,3.785-8.4,8.41v10.092h-46.2V29.529c0-4.626-3.78-8.41-8.4-8.41s-8.4,3.785-8.4,8.41v10.092H273
			V29.529c0-4.626-3.78-8.41-8.4-8.41s-8.4,3.785-8.4,8.41v10.092h-42V29.529c0-4.626-3.78-8.41-8.4-8.41s-8.4,3.785-8.4,8.41
			v10.092h-46.2V29.529c0-4.626-3.78-8.41-8.4-8.41s-8.4,3.785-8.4,8.41v10.092H88.2V29.529c0-4.626-3.78-8.41-8.4-8.41
			c-4.62,0-8.4,3.785-8.4,8.41v10.092H53.34C23.94,39.621,0,66.114,0,95.55v296.464c0,29.436,23.94,51.303,53.34,51.303h105.42
			c19.74,40.79,61.32,68.965,109.62,68.965s89.88-28.175,109.62-68.965h105.84c29.4,0,49.56-21.867,49.56-51.303V95.55
			C533.4,66.114,513.24,39.621,483.84,39.621z M268.38,495.461c-57.96,0-105-47.098-105-105.129s47.04-105.129,105-105.129
			s105,47.098,105,105.129S326.34,495.461,268.38,495.461z M516.6,392.014c0,20.185-12.6,34.482-32.76,34.482h-99.12
			c3.36-11.354,5.46-23.549,5.46-36.164c0-67.283-54.6-121.95-121.8-121.95s-121.8,54.667-121.8,121.95
			c0,12.616,2.1,24.81,5.46,36.164h-98.7c-20.16,0-36.54-14.718-36.54-34.482V98.493h499.8V392.014z"/>
		<path d="M79.8,174.186h54.6c4.62,0,8.4-3.785,8.4-8.41s-3.78-8.41-8.4-8.41H79.8c-4.62,0-8.4,3.785-8.4,8.41
			S75.18,174.186,79.8,174.186z"/>
		<path d="M79.8,241.469h54.6c4.62,0,8.4-3.785,8.4-8.41c0-4.626-3.78-8.41-8.4-8.41H79.8c-4.62,0-8.4,3.785-8.4,8.41
			C71.4,237.684,75.18,241.469,79.8,241.469z"/>
		<path d="M79.8,308.752h54.6c4.62,0,8.4-3.785,8.4-8.41s-3.78-8.41-8.4-8.41H79.8c-4.62,0-8.4,3.785-8.4,8.41
			S75.18,308.752,79.8,308.752z"/>
		<path d="M79.8,376.034h54.6c4.62,0,8.4-3.785,8.4-8.41s-3.78-8.41-8.4-8.41H79.8c-4.62,0-8.4,3.785-8.4,8.41
			S75.18,376.034,79.8,376.034z"/>
		<path d="M189,174.186h54.6c4.62,0,8.4-3.785,8.4-8.41s-3.78-8.41-8.4-8.41H189c-4.62,0-8.4,3.785-8.4,8.41
			S184.38,174.186,189,174.186z"/>
		<path d="M189,241.469h54.6c4.62,0,8.4-3.785,8.4-8.41c0-4.626-3.78-8.41-8.4-8.41H189c-4.62,0-8.4,3.785-8.4,8.41
			C180.6,237.684,184.38,241.469,189,241.469z"/>
		<path d="M298.2,174.186h54.6c4.62,0,8.4-3.785,8.4-8.41s-3.78-8.41-8.4-8.41h-54.6c-4.62,0-8.4,3.785-8.4,8.41
			S293.58,174.186,298.2,174.186z"/>
		<path d="M298.2,241.469h54.6c4.62,0,8.4-3.785,8.4-8.41c0-4.626-3.78-8.41-8.4-8.41h-54.6c-4.62,0-8.4,3.785-8.4,8.41
			C289.8,237.684,293.58,241.469,298.2,241.469z"/>
		<path d="M407.4,174.186H462c4.62,0,8.4-3.785,8.4-8.41s-3.78-8.41-8.4-8.41h-54.6c-4.62,0-8.4,3.785-8.4,8.41
			S402.78,174.186,407.4,174.186z"/>
		<path d="M407.4,241.469H462c4.62,0,8.4-3.785,8.4-8.41c0-4.626-3.78-8.41-8.4-8.41h-54.6c-4.62,0-8.4,3.785-8.4,8.41
			C399,237.684,402.78,241.469,407.4,241.469z"/>
		<path d="M407.4,308.752H462c4.62,0,8.4-3.785,8.4-8.41s-3.78-8.41-8.4-8.41h-54.6c-4.62,0-8.4,3.785-8.4,8.41
			S402.78,308.752,407.4,308.752z"/>
		<path d="M407.4,376.034H462c4.62,0,8.4-3.785,8.4-8.41s-3.78-8.41-8.4-8.41h-54.6c-4.62,0-8.4,3.785-8.4,8.41
			S402.78,376.034,407.4,376.034z"/>
	</g>
</g>
<g>
</g>
<g>
</g>
<g>
</g>
<g>
</g>
<g>
</g>
<g>
</g>
<g>
</g>
<g>
</g>
<g>
</g>
<g>
</g>
<g>
</g>
<g>
</g>
<g>
</g>
<g>
</g>
<g>
</g>
</svg>
